<svg width="144" height="24" viewBox="0 0 144 24" fill="none" xmlns="http://www.w3.org/2000/svg">
<g clip-path="url(#clip0_623_99513)">
<path d="M13.373 24V19.353C18.6771 19.353 22.7543 14.4773 20.7313 9.28876C20.3591 8.33711 19.7679 7.47354 18.9997 6.75907C18.2314 6.04461 17.3048 5.49668 16.2852 5.154C10.7054 3.27225 5.46307 7.09275 5.46307 11.997H0.465332C0.465332 4.1565 8.62064 -1.97325 17.4503 0.592498C21.3134 1.70475 24.3796 4.584 25.6064 8.17651C28.3655 16.416 21.8042 24 13.373 24Z" fill="#FCFCFD"/>
<path d="M13.3722 19.3815H8.40489V14.7622H13.3722V19.3815ZM8.40569 22.9447H4.573V19.3815H8.40489L8.40569 22.9447ZM4.5738 19.3815H1.35449V16.416H4.54333V19.3815H4.5738Z" fill="#FCFCFD"/>
<path d="M40.3535 6.90375C39.001 5.96325 37.3101 5.47875 35.337 5.47875H31.0532V19.278H35.337C37.3101 19.278 39.001 18.7643 40.3535 17.7668C41.0861 17.2253 41.678 16.4835 42.073 15.543C42.4674 14.6018 42.6929 13.5188 42.6929 12.2925C42.6929 11.0663 42.4954 9.98325 42.073 9.0705C41.678 8.13 41.1149 7.389 40.3535 6.90375ZM33.5629 7.788H34.9154C36.4095 7.788 37.6492 8.073 38.5794 8.6715C39.6223 9.29925 40.1574 10.5248 40.1574 12.264C40.1574 14.0603 39.6223 15.315 38.5794 15.999C37.6772 16.5975 36.4655 16.9118 34.9434 16.9118H33.5909V7.788H33.5629ZM45.709 5.2785C45.2859 5.2785 44.9483 5.42175 44.666 5.70675C44.3845 5.99175 44.215 6.33375 44.215 6.76125C44.215 7.18875 44.3565 7.5315 44.638 7.845C44.9196 8.13 45.2859 8.2725 45.709 8.2725C46.1321 8.2725 46.4696 8.13 46.7799 7.845C47.0615 7.56 47.203 7.18875 47.203 6.76125C47.203 6.33375 47.0615 5.99175 46.7799 5.70675C46.4696 5.45025 46.1033 5.2785 45.709 5.2785ZM44.4685 9.5265H46.892V19.2488H44.4685V9.5265ZM55.6549 10.3538C54.9223 9.69825 54.1049 9.327 53.2314 9.327C51.9069 9.327 50.7792 9.78375 49.9338 10.7243C49.0604 11.637 48.6373 12.8055 48.6373 14.2028C48.6373 15.5715 49.0604 16.74 49.9058 17.6813C50.7512 18.5933 51.8789 19.0493 53.2034 19.0493C54.1336 19.0493 54.9223 18.7928 55.5989 18.2798V18.5078C55.5989 19.3058 55.3733 19.9335 54.979 20.361C54.5559 20.7885 53.9641 21.0165 53.2595 21.0165C52.1325 21.0165 51.4559 20.5605 50.5824 19.4205L48.9476 21.0165L49.0036 21.0735C49.3707 21.5873 49.9058 22.0718 50.6104 22.5278C51.3151 22.9838 52.2453 23.2403 53.2882 23.2403C54.7255 23.2403 55.8804 22.7843 56.7259 21.9008C57.572 21.0165 58.0224 19.8195 58.0224 18.3653V9.52725H55.6549V10.3538ZM55.0078 16.0845C54.5847 16.569 54.0496 16.797 53.3449 16.797C52.6403 16.797 52.1045 16.569 51.7101 16.0845C51.2871 15.6 51.0903 14.9723 51.0903 14.1743C51.0903 13.3763 51.2871 12.7485 51.7101 12.264C52.1332 11.7795 52.6683 11.5515 53.3449 11.5515C54.0496 11.5515 54.5847 11.7795 55.0078 12.264C55.4301 12.7485 55.6276 13.4048 55.6276 14.1743C55.6556 14.9723 55.4301 15.6 55.0078 16.0845ZM60.081 9.5265H62.5044V19.2488H60.081V9.5265ZM61.3229 5.2785C60.8998 5.2785 60.5615 5.42175 60.28 5.70675C59.9984 5.99175 59.8289 6.33375 59.8289 6.76125C59.8289 7.18875 59.9697 7.5315 60.252 7.845C60.5335 8.13 60.8998 8.2725 61.3229 8.2725C61.7453 8.2725 62.0836 8.13 62.3939 7.845C62.6754 7.56 62.8162 7.18875 62.8162 6.76125C62.8162 6.33375 62.6754 5.99175 62.3939 5.70675C62.0836 5.45025 61.7453 5.2785 61.3229 5.2785ZM67.8039 6.90375H65.4365V9.52725H64.0552V11.751H65.4365V15.771C65.4365 17.025 65.69 17.9378 66.1691 18.4508C66.6769 18.9638 67.5504 19.2488 68.7621 19.2488C69.1564 19.2488 69.5515 19.2488 69.9458 19.2203H70.0586V16.9965L69.2412 17.0535C68.6773 17.0535 68.283 16.9395 68.0855 16.74C67.8887 16.5405 67.8039 16.113 67.8039 15.4575V11.7795H70.0586V9.55575H67.8039V6.90375ZM81.388 5.4495H83.8114V19.2495H81.388V5.4495ZM108.191 15.771C107.767 16.2555 107.316 16.683 106.978 16.911C106.64 17.139 106.217 17.2245 105.738 17.2245C105.034 17.2245 104.442 16.968 103.991 16.4265C103.54 15.885 103.286 15.2003 103.286 14.3738C103.286 13.5473 103.512 12.8625 103.963 12.321C104.414 11.7795 105.006 11.523 105.71 11.523C106.499 11.523 107.316 12.0075 108.021 12.8625L109.628 11.3228C108.585 9.95475 107.26 9.327 105.682 9.327C104.357 9.327 103.202 9.81225 102.272 10.7813C101.342 11.751 100.863 12.948 100.863 14.4023C100.863 15.8565 101.342 17.082 102.272 18.0233C103.202 18.9923 104.357 19.4775 105.682 19.4775C107.429 19.4775 108.838 18.7073 109.797 17.31L108.191 15.771ZM118.111 10.8953C117.772 10.4108 117.293 10.0118 116.729 9.72675C116.166 9.44175 115.489 9.29925 114.728 9.29925C113.376 9.29925 112.276 9.81225 111.459 10.7813C110.642 11.7795 110.247 13.005 110.247 14.4308C110.247 15.9135 110.698 17.1113 111.571 18.0518C112.446 18.9638 113.629 19.449 115.067 19.449C116.701 19.449 118.026 18.7928 119.04 17.4818L119.097 17.4248L117.519 15.885C117.377 16.056 117.152 16.2555 116.983 16.455C116.757 16.683 116.532 16.854 116.278 16.968C115.9 17.1531 115.486 17.2507 115.067 17.2538C114.39 17.2538 113.855 17.0543 113.432 16.6545C113.037 16.284 112.812 15.7995 112.755 15.1725H119.153L119.182 14.2883C119.182 13.6613 119.097 13.062 118.927 12.492C118.703 11.8935 118.448 11.3805 118.111 10.8953ZM112.841 13.1768C112.943 12.7467 113.157 12.3526 113.461 12.036C113.799 11.7225 114.221 11.5515 114.729 11.5515C115.321 11.5515 115.771 11.7225 116.082 12.0645C116.363 12.378 116.533 12.7485 116.561 13.2053H112.841V13.1768ZM127.384 10.2683C126.651 9.64125 125.637 9.327 124.368 9.327C123.551 9.327 122.818 9.49875 122.142 9.84075C121.458 10.189 120.889 10.7341 120.507 11.4083L120.536 11.4368L122.086 12.948C122.734 11.922 123.438 11.5515 124.368 11.5515C124.875 11.5515 125.299 11.694 125.608 11.9505C125.918 12.207 126.087 12.549 126.087 13.005V13.4903C125.495 13.3185 124.903 13.2045 124.312 13.2045C123.1 13.2045 122.142 13.4903 121.409 14.0603C120.676 14.6303 120.31 15.4575 120.31 16.4835C120.31 17.3963 120.62 18.1373 121.24 18.6788C121.86 19.2203 122.649 19.4775 123.579 19.4775C124.509 19.4775 125.355 19.1063 126.144 18.4508V19.2488H128.511V13.005C128.483 11.808 128.116 10.8953 127.384 10.2683ZM123.099 15.5423C123.381 15.3428 123.748 15.2573 124.255 15.2573C124.88 15.2625 125.5 15.3784 126.086 15.6V16.5405C125.551 17.025 124.847 17.2815 124.001 17.2815C123.578 17.2815 123.269 17.196 123.043 16.9965C122.818 16.8255 122.705 16.5975 122.705 16.284C122.705 15.9705 122.818 15.714 123.099 15.5423ZM137.783 10.4393C137.106 9.66975 136.176 9.29925 134.964 9.29925C134.006 9.29925 133.218 9.58425 132.654 10.1258V9.52725H130.286V19.2495H132.71V13.8893C132.71 13.1483 132.879 12.5775 133.217 12.15C133.555 11.7225 134.034 11.523 134.655 11.523C135.19 11.523 135.613 11.694 135.923 12.0645C136.233 12.435 136.374 12.948 136.374 13.6043V19.221H138.797V13.6043C138.797 12.264 138.459 11.2095 137.783 10.4393ZM78.3461 10.2683C77.6135 9.64125 76.5985 9.327 75.3308 9.327C74.5134 9.327 73.7808 9.49875 73.1041 9.84075C72.4199 10.1888 71.8514 10.7339 71.4693 11.4083L71.4973 11.4368L73.0474 12.948C73.696 11.922 74.4006 11.5515 75.3308 11.5515C75.8379 11.5515 76.2602 11.694 76.5705 11.9505C76.8808 12.207 77.0496 12.549 77.0496 13.005V13.4903C76.4578 13.3185 75.8659 13.2045 75.274 13.2045C74.0623 13.2045 73.1041 13.4903 72.3715 14.0603C71.6389 14.6303 71.2718 15.4575 71.2718 16.4835C71.2718 17.3963 71.5821 18.1373 72.202 18.6788C72.8218 19.2203 73.6112 19.4775 74.5414 19.4775C75.4716 19.4775 76.317 19.1063 77.1064 18.4508V19.2488H79.4731V13.005C79.4451 11.808 79.0788 10.8953 78.3461 10.2683ZM74.0616 15.5423C74.3439 15.3428 74.7102 15.2573 75.2173 15.2573C75.8428 15.2625 76.4625 15.3784 77.0489 15.6V16.5405C76.5138 17.025 75.8092 17.2815 74.9637 17.2815C74.5407 17.2815 74.2311 17.196 74.0056 16.9965C73.78 16.8255 73.6673 16.5975 73.6673 16.284C73.6673 15.9705 73.78 15.714 74.0616 15.5423ZM92.5486 19.449C88.6879 19.449 85.531 16.2555 85.531 12.3495C85.531 8.4435 88.6879 5.25 92.5486 5.25C96.4101 5.25 99.5662 8.4435 99.5662 12.3495C99.5662 16.2555 96.4381 19.449 92.5486 19.449ZM92.5479 7.731C90.0396 7.731 88.0105 9.78375 88.0105 12.321C88.0105 14.8583 90.0396 16.9118 92.5479 16.9118C95.0561 16.9118 97.0852 14.8583 97.0852 12.321C97.0852 9.78375 95.0561 7.731 92.5479 7.731Z" fill="#FCFCFD"/>
</g>
<defs>
<clipPath id="clip0_623_99513">
<rect width="142.99" height="24" fill="white" transform="translate(0.465332)"/>
</clipPath>
</defs>
</svg>
