<svg width="144" height="24" viewBox="0 0 144 24" fill="none" xmlns="http://www.w3.org/2000/svg">
<g clip-path="url(#clip0_212_56722)">
<path d="M13.3601 24V19.353C18.6642 19.353 22.7414 14.4773 20.7184 9.28876C20.3462 8.33711 19.755 7.47354 18.9868 6.75907C18.2185 6.04461 17.2919 5.49668 16.2723 5.154C10.6925 3.27225 5.45017 7.09275 5.45017 11.997H0.452423C0.452423 4.1565 8.60773 -1.97325 17.4374 0.592498C21.3005 1.70475 24.3667 4.584 25.5935 8.17651C28.3525 16.416 21.7913 24 13.3601 24Z" fill="#475467"/>
<path d="M13.3593 19.3815H8.39201V14.7622H13.3593V19.3815ZM8.39282 22.9447H4.56012V19.3815H8.39201L8.39282 22.9447ZM4.56092 19.3815H1.34161V16.416H4.53045V19.3815H4.56092Z" fill="#475467"/>
<path d="M40.3408 6.90375C38.9883 5.96325 37.2974 5.47875 35.3243 5.47875H31.0405V19.278H35.3243C37.2974 19.278 38.9883 18.7643 40.3408 17.7668C41.0734 17.2253 41.6653 16.4835 42.0603 15.543C42.4547 14.6018 42.6802 13.5188 42.6802 12.2925C42.6802 11.0663 42.4827 9.98325 42.0603 9.0705C41.6653 8.13 41.1022 7.389 40.3408 6.90375ZM33.5502 7.788H34.9027C36.3968 7.788 37.6365 8.073 38.5667 8.6715C39.6096 9.29925 40.1447 10.5248 40.1447 12.264C40.1447 14.0603 39.6096 15.315 38.5667 15.999C37.6645 16.5975 36.4528 16.9118 34.9307 16.9118H33.5782V7.788H33.5502ZM45.6963 5.2785C45.2732 5.2785 44.9356 5.42175 44.6533 5.70675C44.3718 5.99175 44.2023 6.33375 44.2023 6.76125C44.2023 7.18875 44.3438 7.5315 44.6253 7.845C44.9069 8.13 45.2732 8.2725 45.6963 8.2725C46.1194 8.2725 46.4569 8.13 46.7672 7.845C47.0488 7.56 47.1903 7.18875 47.1903 6.76125C47.1903 6.33375 47.0488 5.99175 46.7672 5.70675C46.4569 5.45025 46.0906 5.2785 45.6963 5.2785ZM44.4558 9.5265H46.8793V19.2488H44.4558V9.5265ZM55.6422 10.3538C54.9096 9.69825 54.0922 9.327 53.2187 9.327C51.8942 9.327 50.7665 9.78375 49.9211 10.7243C49.0477 11.637 48.6246 12.8055 48.6246 14.2028C48.6246 15.5715 49.0477 16.74 49.8931 17.6813C50.7385 18.5933 51.8662 19.0493 53.1907 19.0493C54.1209 19.0493 54.9096 18.7928 55.5862 18.2798V18.5078C55.5862 19.3058 55.3606 19.9335 54.9663 20.361C54.5432 20.7885 53.9514 21.0165 53.2467 21.0165C52.1198 21.0165 51.4432 20.5605 50.5697 19.4205L48.9349 21.0165L48.9909 21.0735C49.358 21.5873 49.8931 22.0718 50.5977 22.5278C51.3024 22.9838 52.2326 23.2403 53.2755 23.2403C54.7128 23.2403 55.8677 22.7843 56.7132 21.9008C57.5593 21.0165 58.0096 19.8195 58.0096 18.3653V9.52725H55.6422V10.3538ZM54.9951 16.0845C54.572 16.569 54.0369 16.797 53.3322 16.797C52.6276 16.797 52.0918 16.569 51.6974 16.0845C51.2744 15.6 51.0776 14.9723 51.0776 14.1743C51.0776 13.3763 51.2744 12.7485 51.6974 12.264C52.1205 11.7795 52.6556 11.5515 53.3322 11.5515C54.0369 11.5515 54.572 11.7795 54.9951 12.264C55.4174 12.7485 55.6149 13.4048 55.6149 14.1743C55.6429 14.9723 55.4174 15.6 54.9951 16.0845ZM60.0683 9.5265H62.4917V19.2488H60.0683V9.5265ZM61.3102 5.2785C60.8871 5.2785 60.5488 5.42175 60.2673 5.70675C59.9857 5.99175 59.8162 6.33375 59.8162 6.76125C59.8162 7.18875 59.957 7.5315 60.2393 7.845C60.5208 8.13 60.8871 8.2725 61.3102 8.2725C61.7326 8.2725 62.0709 8.13 62.3812 7.845C62.6627 7.56 62.8035 7.18875 62.8035 6.76125C62.8035 6.33375 62.6627 5.99175 62.3812 5.70675C62.0709 5.45025 61.7326 5.2785 61.3102 5.2785ZM67.7912 6.90375H65.4238V9.52725H64.0425V11.751H65.4238V15.771C65.4238 17.025 65.6773 17.9378 66.1564 18.4508C66.6642 18.9638 67.5377 19.2488 68.7494 19.2488C69.1437 19.2488 69.5388 19.2488 69.9331 19.2203H70.0459V16.9965L69.2285 17.0535C68.6646 17.0535 68.2703 16.9395 68.0728 16.74C67.876 16.5405 67.7912 16.113 67.7912 15.4575V11.7795H70.0459V9.55575H67.7912V6.90375ZM81.3753 5.4495H83.7987V19.2495H81.3753V5.4495ZM108.178 15.771C107.755 16.2555 107.304 16.683 106.965 16.911C106.628 17.139 106.205 17.2245 105.726 17.2245C105.021 17.2245 104.429 16.968 103.978 16.4265C103.527 15.885 103.273 15.2003 103.273 14.3738C103.273 13.5473 103.499 12.8625 103.95 12.321C104.401 11.7795 104.993 11.523 105.698 11.523C106.486 11.523 107.304 12.0075 108.008 12.8625L109.615 11.3228C108.572 9.95475 107.248 9.327 105.669 9.327C104.344 9.327 103.189 9.81225 102.259 10.7813C101.329 11.751 100.85 12.948 100.85 14.4023C100.85 15.8565 101.329 17.082 102.259 18.0233C103.189 18.9923 104.344 19.4775 105.669 19.4775C107.416 19.4775 108.826 18.7073 109.784 17.31L108.178 15.771ZM118.098 10.8953C117.76 10.4108 117.281 10.0118 116.717 9.72675C116.153 9.44175 115.476 9.29925 114.716 9.29925C113.363 9.29925 112.263 9.81225 111.447 10.7813C110.629 11.7795 110.234 13.005 110.234 14.4308C110.234 15.9135 110.685 17.1113 111.559 18.0518C112.433 18.9638 113.617 19.449 115.054 19.449C116.689 19.449 118.013 18.7928 119.027 17.4818L119.084 17.4248L117.506 15.885C117.365 16.056 117.139 16.2555 116.97 16.455C116.745 16.683 116.519 16.854 116.266 16.968C115.887 17.1531 115.474 17.2507 115.054 17.2538C114.377 17.2538 113.842 17.0543 113.419 16.6545C113.025 16.284 112.799 15.7995 112.742 15.1725H119.14L119.169 14.2883C119.169 13.6613 119.084 13.062 118.915 12.492C118.69 11.8935 118.436 11.3805 118.098 10.8953ZM112.828 13.1768C112.93 12.7467 113.144 12.3526 113.448 12.036C113.786 11.7225 114.208 11.5515 114.716 11.5515C115.308 11.5515 115.759 11.7225 116.069 12.0645C116.35 12.378 116.52 12.7485 116.548 13.2053H112.828V13.1768ZM127.371 10.2683C126.638 9.64125 125.624 9.327 124.356 9.327C123.538 9.327 122.806 9.49875 122.129 9.84075C121.445 10.189 120.876 10.7341 120.494 11.4083L120.523 11.4368L122.073 12.948C122.721 11.922 123.425 11.5515 124.356 11.5515C124.863 11.5515 125.286 11.694 125.595 11.9505C125.906 12.207 126.074 12.549 126.074 13.005V13.4903C125.483 13.3185 124.891 13.2045 124.299 13.2045C123.087 13.2045 122.129 13.4903 121.396 14.0603C120.664 14.6303 120.297 15.4575 120.297 16.4835C120.297 17.3963 120.607 18.1373 121.228 18.6788C121.847 19.2203 122.636 19.4775 123.566 19.4775C124.496 19.4775 125.342 19.1063 126.131 18.4508V19.2488H128.499V13.005C128.47 11.808 128.104 10.8953 127.371 10.2683ZM123.086 15.5423C123.369 15.3428 123.735 15.2573 124.242 15.2573C124.868 15.2625 125.487 15.3784 126.074 15.6V16.5405C125.539 17.025 124.834 17.2815 123.989 17.2815C123.565 17.2815 123.256 17.196 123.03 16.9965C122.805 16.8255 122.692 16.5975 122.692 16.284C122.692 15.9705 122.805 15.714 123.086 15.5423ZM137.77 10.4393C137.094 9.66975 136.163 9.29925 134.952 9.29925C133.993 9.29925 133.205 9.58425 132.641 10.1258V9.52725H130.273V19.2495H132.697V13.8893C132.697 13.1483 132.866 12.5775 133.205 12.15C133.542 11.7225 134.021 11.523 134.642 11.523C135.177 11.523 135.6 11.694 135.91 12.0645C136.22 12.435 136.361 12.948 136.361 13.6043V19.221H138.784V13.6043C138.784 12.264 138.447 11.2095 137.77 10.4393ZM78.3334 10.2683C77.6008 9.64125 76.5858 9.327 75.3181 9.327C74.5007 9.327 73.7681 9.49875 73.0914 9.84075C72.4072 10.1888 71.8387 10.7339 71.4566 11.4083L71.4846 11.4368L73.0347 12.948C73.6833 11.922 74.3879 11.5515 75.3181 11.5515C75.8252 11.5515 76.2475 11.694 76.5578 11.9505C76.8681 12.207 77.0369 12.549 77.0369 13.005V13.4903C76.4451 13.3185 75.8532 13.2045 75.2613 13.2045C74.0496 13.2045 73.0914 13.4903 72.3588 14.0603C71.6261 14.6303 71.2591 15.4575 71.2591 16.4835C71.2591 17.3963 71.5694 18.1373 72.1893 18.6788C72.8091 19.2203 73.5985 19.4775 74.5287 19.4775C75.4589 19.4775 76.3043 19.1063 77.0937 18.4508V19.2488H79.4604V13.005C79.4324 11.808 79.0661 10.8953 78.3334 10.2683ZM74.0489 15.5423C74.3312 15.3428 74.6975 15.2573 75.2046 15.2573C75.83 15.2625 76.4498 15.3784 77.0362 15.6V16.5405C76.5011 17.025 75.7964 17.2815 74.951 17.2815C74.528 17.2815 74.2184 17.196 73.9929 16.9965C73.7673 16.8255 73.6545 16.5975 73.6545 16.284C73.6545 15.9705 73.7673 15.714 74.0489 15.5423ZM92.5359 19.449C88.6752 19.449 85.5183 16.2555 85.5183 12.3495C85.5183 8.4435 88.6752 5.25 92.5359 5.25C96.3974 5.25 99.5535 8.4435 99.5535 12.3495C99.5535 16.2555 96.4254 19.449 92.5359 19.449ZM92.5351 7.731C90.0269 7.731 87.9978 9.78375 87.9978 12.321C87.9978 14.8583 90.0269 16.9118 92.5351 16.9118C95.0434 16.9118 97.0725 14.8583 97.0725 12.321C97.0725 9.78375 95.0434 7.731 92.5351 7.731Z" fill="#475467"/>
</g>
<defs>
<clipPath id="clip0_212_56722">
<rect width="142.99" height="24" fill="white" transform="translate(0.452423)"/>
</clipPath>
</defs>
</svg>
