<svg width="25" height="24" viewBox="0 0 25 24" fill="none" xmlns="http://www.w3.org/2000/svg">
<path d="M12.5 2.24707C10.1255 2.24717 7.82849 3.09218 6.01999 4.63092C4.21149 6.16965 3.00953 8.30169 2.62916 10.6456C2.24879 12.9894 2.71485 15.3921 3.94393 17.4238C5.17301 19.4555 7.08491 20.9836 9.33755 21.7346C9.83755 21.8221 10.025 21.5221 10.025 21.2596C10.025 21.0221 10.0125 20.2346 10.0125 19.3971C7.50003 19.8596 6.85003 18.7846 6.65003 18.2221C6.4281 17.675 6.0763 17.1902 5.62503 16.8096C5.27503 16.6221 4.77503 16.1596 5.61252 16.1471C5.9323 16.1818 6.23901 16.2931 6.50666 16.4715C6.7743 16.6499 6.99499 16.8902 7.15003 17.1721C7.2868 17.4178 7.47071 17.6341 7.69122 17.8086C7.91173 17.9831 8.1645 18.1123 8.43506 18.189C8.70562 18.2656 8.98864 18.2881 9.26791 18.2552C9.54717 18.2222 9.8172 18.1345 10.0625 17.9971C10.1058 17.4887 10.3324 17.0134 10.7 16.6596C8.47503 16.4096 6.15003 15.5471 6.15003 11.7221C6.13597 10.7282 6.50271 9.76668 7.17503 9.0346C6.86931 8.17082 6.90508 7.22288 7.27503 6.3846C7.27503 6.3846 8.1125 6.12209 10.025 7.4096C11.6613 6.95957 13.3887 6.95957 15.025 7.4096C16.9375 6.1096 17.775 6.3846 17.775 6.3846C18.145 7.22287 18.1808 8.17083 17.875 9.0346C18.5494 9.76542 18.9164 10.7278 18.9 11.7221C18.9 15.5596 16.5625 16.4096 14.3375 16.6596C14.5762 16.9015 14.76 17.1919 14.8764 17.5111C14.9929 17.8303 15.0393 18.1709 15.0125 18.5096C15.0125 19.8471 15 20.9221 15 21.2596C15 21.5221 15.1875 21.8346 15.6875 21.7346C17.9362 20.9775 19.8426 19.4458 21.0664 17.4131C22.2903 15.3804 22.7519 12.9789 22.3689 10.6373C21.9859 8.29572 20.7832 6.16644 18.9755 4.62958C17.1678 3.09272 14.8727 2.24831 12.5 2.24707Z" fill="#FCFCFD"/>
</svg>
