<svg width="34" height="24" viewBox="0 0 34 24" fill="none" xmlns="http://www.w3.org/2000/svg">
<path d="M0.136183 11.9974C0.106267 14.3112 0.754628 16.5796 1.99611 18.5245C2.14592 18.7592 2.43275 18.8693 2.69506 18.7759C5.05169 17.9372 6.77835 15.2194 6.77835 11.9974C6.77835 8.77571 5.05676 6.06519 2.70769 5.22248C2.44567 5.12849 2.15862 5.2378 2.00819 5.47202C0.760834 7.41415 0.108069 9.68259 0.136183 11.9974Z" fill="#477DB3"/>
<g style="mix-blend-mode:overlay" opacity="0.1">
<path d="M2.07027 6.5869C1.77027 6.40911 1.39464 6.54879 1.2506 6.86639C0.520565 8.47602 0.141418 10.2253 0.141418 11.9974C0.141418 13.7698 0.52065 15.5192 1.25084 17.129C1.3948 17.4464 1.77005 17.5861 2.07005 17.4088C3.6916 16.4504 4.81669 14.393 4.81669 11.9974C4.81669 9.60258 3.68804 7.54568 2.07027 6.5869Z" fill="#477DB3"/>
</g>
<g style="mix-blend-mode:multiply" opacity="0.2">
<path d="M4.13045 6.01753C3.88298 5.82374 3.67982 6.16346 3.88737 6.39951C5.10289 7.78193 5.86959 9.77622 5.86959 11.9974C5.86959 14.2155 5.10769 16.2047 3.89459 17.5854C3.68701 17.8216 3.89015 18.1614 4.13756 17.9673C5.72355 16.7227 6.77844 14.5155 6.77844 11.9974C6.77844 9.47554 5.7204 7.26258 4.13045 6.01753Z" fill="#477DB3"/>
</g>
<path d="M20.0755 14.3022L19.8476 14.2499C19.214 14.1133 18.5539 14.1701 17.9529 14.413C17.352 14.6558 16.8377 15.0734 16.4768 15.6118C15.5286 17.0209 14.0986 17.6626 12.4328 17.6626C11.7681 17.6682 11.1072 17.5601 10.4789 17.3431C9.73888 17.0734 8.92515 17.0878 8.1951 17.3834C7.46505 17.679 6.87056 18.2348 6.52661 18.9434C6.32857 19.351 6.2204 19.7964 6.20943 20.2494C6.19845 20.7024 6.28491 21.1525 6.46297 21.5692C6.64103 21.986 6.90653 22.3596 7.2415 22.6648C7.57647 22.97 7.9731 23.1997 8.40454 23.3383C9.70847 23.745 11.0669 23.9499 12.4328 23.946C16.3615 23.946 19.8528 22.2592 21.9927 19.4201C22.3196 18.9846 22.5315 18.4738 22.609 17.9348C22.6865 17.3958 22.6269 16.8459 22.4359 16.336C22.2449 15.8261 21.9285 15.3725 21.516 15.017C21.1034 14.6616 20.608 14.4158 20.0755 14.3022Z" fill="#477DB3"/>
<path d="M6.52689 5.06712C6.87288 5.77702 7.46987 6.33335 8.20237 6.62848C8.93487 6.9236 9.75079 6.93655 10.4923 6.66481C11.116 6.44696 11.7725 6.33798 12.4331 6.34265C14.0439 6.34265 15.4346 6.96601 16.333 8.29129C16.7018 8.85431 17.2338 9.29123 17.8577 9.54353C18.4817 9.79583 19.1678 9.85148 19.8243 9.70302L20.0862 9.63754C20.6126 9.51197 21.0991 9.25666 21.5016 8.89489C21.904 8.53311 22.2095 8.07638 22.3902 7.56631C22.5709 7.05625 22.621 6.50906 22.5361 5.97464C22.4512 5.44022 22.2338 4.93555 21.9039 4.50663C19.73 1.70676 16.2518 0.0540771 12.4252 0.0540771C11.0599 0.0564978 9.70314 0.268497 8.4022 0.682671C7.9716 0.822015 7.57587 1.05205 7.24168 1.35726C6.90749 1.66248 6.64261 2.03579 6.4649 2.45203C6.28718 2.86827 6.20076 3.31776 6.21146 3.77023C6.22215 4.22269 6.32971 4.6676 6.52689 5.07498V5.06712Z" fill="#477DB3"/>
<g style="mix-blend-mode:multiply" opacity="0.5">
<g style="mix-blend-mode:multiply" opacity="0.5">
<path d="M20.0261 14.3022L19.848 14.2629C19.2157 14.1251 18.5566 14.1799 17.9557 14.4203C17.3549 14.6608 16.8399 15.0758 16.4772 15.6118C15.5291 17.0209 14.099 17.6626 12.4332 17.6626C11.7685 17.6681 11.1077 17.5601 10.4793 17.3431C9.91979 17.1418 9.3153 17.1001 8.73343 17.2227C8.15156 17.3452 7.61525 17.6272 7.18445 18.0371C8.18908 18.9075 9.39575 19.5123 10.6943 19.7964C11.9928 20.0804 13.3418 20.0347 14.6181 19.6632C15.8943 19.2918 17.0572 18.6066 18.0006 17.6701C18.9439 16.7336 19.6376 15.5758 20.0183 14.3022H20.0261Z" fill="#477DB3"/>
</g>
<g style="mix-blend-mode:multiply" opacity="0.5">
<path d="M7.20251 5.98908C7.63537 6.39385 8.17164 6.67115 8.75214 6.79039C9.33264 6.90963 9.9348 6.86618 10.4922 6.66481C11.1158 6.44697 11.7723 6.33799 12.433 6.34265C14.0437 6.34265 15.4345 6.96601 16.3329 8.2913C16.7017 8.85432 17.2336 9.29123 17.8576 9.54353C18.4816 9.79584 19.1677 9.85148 19.8242 9.70303L20.0023 9.66112C19.6111 8.39916 18.9117 7.25448 17.9675 6.3304C17.0232 5.40632 15.8636 4.73191 14.5935 4.36805C13.3234 4.0042 11.9826 3.96234 10.6923 4.24626C9.40195 4.53017 8.20261 5.13093 7.20251 5.99431V5.98908Z" fill="#477DB3"/>
</g>
</g>
<g style="mix-blend-mode:overlay" opacity="0.3">
<g style="mix-blend-mode:overlay" opacity="0.3">
<path d="M12.4041 23.0607C10.2576 23.0633 8.15719 22.4378 6.36176 21.2613C6.51009 21.7457 6.77407 22.1867 7.13091 22.5463C7.48774 22.9058 7.92671 23.1732 8.40993 23.3252C9.71386 23.7319 11.0723 23.9368 12.4382 23.9329C16.3669 23.9329 19.8582 22.2461 21.9981 19.407C22.3048 19.0012 22.5096 18.5278 22.5953 18.0264C22.681 17.5251 22.645 17.0105 22.4905 16.5259C21.6196 18.4727 20.2038 20.1256 18.4139 21.2853C16.6241 22.4449 14.5368 23.0615 12.4041 23.0607Z" fill="#477DB3"/>
</g>
<g style="mix-blend-mode:overlay" opacity="0.3">
<path d="M12.4042 0.965536C14.5202 0.965586 16.5916 1.5733 18.3723 2.71643C20.1529 3.85955 21.5678 5.49 22.4487 7.41389C22.6031 6.92308 22.6361 6.40211 22.5449 5.89573C22.4536 5.38935 22.2409 4.91268 21.9248 4.50663C19.7509 1.70676 16.2727 0.0540771 12.4461 0.0540771C11.0738 0.054348 9.7098 0.266373 8.40217 0.682671C7.91421 0.836554 7.47163 1.1082 7.11351 1.47363C6.7554 1.83905 6.49275 2.28702 6.34875 2.77799C8.14588 1.59318 10.2517 0.962885 12.4042 0.965536Z" fill="#477DB3"/>
</g>
</g>
<g filter="url(#filter0_i_208_13284)">
<path d="M28.9531 20.6693L26.9914 22.631C26.8754 22.7475 26.7375 22.8399 26.5857 22.903C26.4338 22.966 26.271 22.9985 26.1066 22.9985C25.9422 22.9985 25.7794 22.966 25.6276 22.903C25.4758 22.8399 25.3379 22.7475 25.2219 22.631C25.1048 22.5153 25.0118 22.3775 24.9483 22.2256C24.8849 22.0738 24.8522 21.9108 24.8522 21.7462C24.8522 21.5816 24.8849 21.4186 24.9483 21.2667C25.0118 21.1149 25.1048 20.9771 25.2219 20.8614L27.1835 18.8997C27.2787 18.8045 27.3322 18.6754 27.3322 18.5408C27.3322 18.4061 27.2787 18.277 27.1835 18.1818C27.0883 18.0866 26.9592 18.0331 26.8246 18.0331C26.6899 18.0331 26.5608 18.0866 26.4656 18.1818L24.5039 20.1485C24.1087 20.5787 23.895 21.1449 23.9074 21.7289C23.9197 22.3129 24.1572 22.8695 24.5703 23.2826C24.9833 23.6956 25.54 23.9331 26.124 23.9455C26.708 23.9578 27.2741 23.7441 27.7043 23.3489L29.671 21.3872C29.7662 21.292 29.8197 21.1629 29.8197 21.0283C29.8197 20.8936 29.7662 20.7645 29.671 20.6693C29.5758 20.5741 29.4467 20.5206 29.3121 20.5206C29.1774 20.5206 29.0483 20.5741 28.9531 20.6693ZM27.2948 20.5581C27.342 20.6049 27.398 20.642 27.4596 20.6672C27.5212 20.6923 27.5872 20.7051 27.6537 20.7047C27.7203 20.7051 27.7862 20.6923 27.8478 20.6672C27.9094 20.642 27.9655 20.6049 28.0127 20.5581L30.5002 18.0706C30.5954 17.9754 30.6489 17.8462 30.6489 17.7116C30.6489 17.577 30.5954 17.4478 30.5002 17.3526C30.405 17.2574 30.2759 17.2039 30.1412 17.2039C30.0066 17.2039 29.8775 17.2574 29.7823 17.3526L27.2948 19.8401C27.2474 19.8871 27.2098 19.943 27.1841 20.0047C27.1584 20.0663 27.1452 20.1323 27.1452 20.1991C27.1452 20.2658 27.1584 20.3319 27.1841 20.3935C27.2098 20.4551 27.2474 20.5111 27.2948 20.5581ZM31.3294 19.7289L33.291 17.7622C33.6862 17.332 33.9 16.7658 33.8876 16.1818C33.8752 15.5978 33.6377 15.0412 33.2247 14.6281C32.8117 14.2151 32.255 13.9776 31.671 13.9652C31.087 13.9529 30.5208 14.1666 30.0907 14.5618L28.1239 16.5235C28.0768 16.5706 28.0394 16.6266 28.0139 16.6882C27.9884 16.7498 27.9752 16.8158 27.9752 16.8824C27.9752 16.9491 27.9884 17.0151 28.0139 17.0767C28.0394 17.1383 28.0768 17.1943 28.1239 17.2414C28.1711 17.2885 28.227 17.3259 28.2886 17.3514C28.3502 17.377 28.4162 17.3901 28.4829 17.3901C28.5496 17.3901 28.6156 17.377 28.6772 17.3514C28.7388 17.3259 28.7947 17.2885 28.8419 17.2414L30.8036 15.2797C30.9196 15.1632 31.0575 15.0708 31.2093 15.0077C31.3611 14.9447 31.5239 14.9122 31.6883 14.9122C31.8527 14.9122 32.0155 14.9447 32.1674 15.0077C32.3192 15.0708 32.4571 15.1632 32.5731 15.2797C32.6902 15.3954 32.7832 15.5332 32.8466 15.6851C32.9101 15.8369 32.9427 15.9999 32.9427 16.1645C32.9427 16.3291 32.9101 16.4921 32.8466 16.6439C32.7832 16.7958 32.6902 16.9336 32.5731 17.0493L30.6114 19.011C30.564 19.058 30.5264 19.1139 30.5008 19.1755C30.4751 19.2371 30.4619 19.3032 30.4619 19.3699C30.4619 19.4367 30.4751 19.5028 30.5008 19.5644C30.5264 19.626 30.564 19.6819 30.6114 19.7289C30.6584 19.7763 30.7143 19.8139 30.776 19.8396C30.8376 19.8652 30.9037 19.8784 30.9704 19.8784C31.0371 19.8784 31.1032 19.8652 31.1648 19.8396C31.2264 19.8139 31.2824 19.7763 31.3294 19.7289Z" fill="url(#paint0_linear_208_13284)"/>
</g>
<defs>
<filter id="filter0_i_208_13284" x="23.9069" y="13.8242" width="10.5434" height="10.1218" filterUnits="userSpaceOnUse" color-interpolation-filters="sRGB">
<feFlood flood-opacity="0" result="BackgroundImageFix"/>
<feBlend mode="normal" in="SourceGraphic" in2="BackgroundImageFix" result="shape"/>
<feColorMatrix in="SourceAlpha" type="matrix" values="0 0 0 0 0 0 0 0 0 0 0 0 0 0 0 0 0 0 127 0" result="hardAlpha"/>
<feOffset dx="0.562162" dy="-0.140541"/>
<feGaussianBlur stdDeviation="0.281081"/>
<feComposite in2="hardAlpha" operator="arithmetic" k2="-1" k3="1"/>
<feColorMatrix type="matrix" values="0 0 0 0 0 0 0 0 0 0 0 0 0 0 0 0 0 0 0.25 0"/>
<feBlend mode="normal" in2="shape" result="effect1_innerShadow_208_13284"/>
</filter>
<linearGradient id="paint0_linear_208_13284" x1="28.9462" y1="21.6855" x2="29.2242" y2="33.8955" gradientUnits="userSpaceOnUse">
<stop stop-color="#477DB3"/>
<stop offset="1" stop-color="#477DB3" stop-opacity="0"/>
</linearGradient>
</defs>
</svg>
