<svg width="14" height="14" viewBox="0 0 14 14" fill="none" xmlns="http://www.w3.org/2000/svg">
<path d="M10.2305 4.84729C11.0231 4.84729 11.6655 4.20482 11.6655 3.41229C11.6655 2.61977 11.0231 1.97729 10.2305 1.97729C9.438 1.97729 8.79553 2.61977 8.79553 3.41229C8.79553 4.20482 9.438 4.84729 10.2305 4.84729Z" fill="#475467" stroke="#ffffff" stroke-width="1.5" stroke-miterlimit="10" stroke-linecap="round" stroke-linejoin="round"/>
<path d="M3.76832 4.84729C4.56085 4.84729 5.20331 4.20482 5.20331 3.41229C5.20331 2.61977 4.56085 1.97729 3.76832 1.97729C2.97579 1.97729 2.33331 2.61977 2.33331 3.41229C2.33331 4.20482 2.97579 4.84729 3.76832 4.84729Z" stroke="#ffffff" stroke-width="1.5" stroke-miterlimit="10" stroke-linecap="round" stroke-linejoin="round"/>
<path d="M10.2305 12.0222C11.0231 12.0222 11.6655 11.3797 11.6655 10.5872C11.6655 9.79466 11.0231 9.15219 10.2305 9.15219C9.438 9.15219 8.79553 9.79466 8.79553 10.5872C8.79553 11.3797 9.438 12.0222 10.2305 12.0222Z" stroke="#ffffff" stroke-width="1.5" stroke-miterlimit="10" stroke-linecap="round" stroke-linejoin="round"/>
<path d="M3.76832 12.0223C4.56085 12.0223 5.20331 11.3798 5.20331 10.5873C5.20331 9.79475 4.56085 9.15228 3.76832 9.15228C2.97579 9.15228 2.33331 9.79475 2.33331 10.5873C2.33331 11.3798 2.97579 12.0223 3.76832 12.0223Z" stroke="#ffffff" stroke-width="1.5" stroke-miterlimit="10" stroke-linecap="round" stroke-linejoin="round"/>
</svg>
