<svg width="69" height="24" viewBox="0 0 69 24" fill="none" xmlns="http://www.w3.org/2000/svg">
<g clip-path="url(#clip0_212_56713)">
<path d="M1.47207 1.03536L14.523 0.054561C16.1261 -0.0854391 16.538 0.00896097 17.5459 0.754562L21.712 3.74096C22.3992 4.25456 22.6279 4.39456 22.6279 4.95376V21.3322C22.6279 22.3586 22.2616 22.9658 20.9793 23.0586L5.82369 23.9922C4.86138 24.0386 4.40303 23.8986 3.89907 23.245L0.831317 19.1858C0.280977 18.4386 0.0529785 17.8794 0.0529785 17.2258V2.66736C0.0529785 1.82816 0.419348 1.12816 1.47207 1.03536Z" fill="white"/>
<path fill-rule="evenodd" clip-rule="evenodd" d="M14.523 0.054561L1.47207 1.03536C0.419348 1.12816 0.0529785 1.82816 0.0529785 2.66736V17.2258C0.0529785 17.8794 0.280977 18.4386 0.831317 19.1858L3.89907 23.245C4.40303 23.8986 4.86138 24.0386 5.82369 23.9922L20.9793 23.0586C22.2608 22.9658 22.6279 22.3586 22.6279 21.3322V4.95376C22.6279 4.42336 22.422 4.27056 21.8158 3.81776C21.7809 3.7922 21.7461 3.7666 21.7112 3.74096L17.5459 0.754562C16.538 0.00896097 16.1261 -0.0854391 14.523 0.054561ZM6.16647 4.68576C4.92899 4.77056 4.64832 4.78976 3.94546 4.20816L2.15842 2.76176C1.97681 2.57456 2.06801 2.34096 2.52558 2.29456L15.0718 1.36176C16.1253 1.26816 16.674 1.64176 17.086 1.96816L19.2378 3.55456C19.3298 3.60176 19.5586 3.88096 19.2834 3.88096L6.32686 4.67456L6.16647 4.68576ZM4.7238 21.1922V7.28817C4.7238 6.68097 4.90698 6.40097 5.45575 6.35377L20.337 5.46737C20.8417 5.42097 21.0697 5.74737 21.0697 6.35377V20.165C21.0697 20.7722 20.9777 21.2858 20.1538 21.3322L5.91332 22.1722C5.08938 22.2186 4.7238 21.9394 4.7238 21.1922ZM18.7811 8.03377C18.8723 8.45377 18.7811 8.87377 18.3683 8.92177L17.682 9.06017V19.3258C17.086 19.6522 16.5372 19.8386 16.0789 19.8386C15.3462 19.8386 15.163 19.605 14.6142 18.9058L10.1258 11.7202V18.6722L11.5457 18.9994C11.5457 18.9994 11.5457 19.8394 10.4002 19.8394L7.242 20.0258C7.15001 19.8386 7.242 19.3722 7.56198 19.2794L8.3867 19.0466V9.85457L7.242 9.76017C7.15001 9.34017 7.37879 8.73377 8.02033 8.68657L11.4089 8.45457L16.0789 15.733V9.29377L14.8886 9.15457C14.7966 8.64017 15.163 8.26657 15.6205 8.22097L18.7811 8.03377Z" fill="#475467"/>
<path d="M32.6284 17.0007V10.6727H32.7361L37.2206 17.0007H38.6326V7.70149H37.0626V14.0231H36.9549L32.4704 7.70149H31.0529V16.9999H32.6292L32.6284 17.0007ZM43.07 17.1431C45.1416 17.1431 46.4019 15.7639 46.4019 13.4759C46.4019 11.1943 45.1353 9.80869 43.07 9.80869C41.0117 9.80869 39.7388 11.2007 39.7388 13.4759C39.7388 15.7639 40.9928 17.1431 43.07 17.1431ZM43.07 15.8023C41.9748 15.8023 41.3482 14.9519 41.3482 13.4759C41.3482 12.0063 41.9748 11.1495 43.07 11.1495C44.1596 11.1495 44.7862 12.0063 44.7862 13.4759C44.7862 14.9519 44.1659 15.8023 43.07 15.8023ZM47.8367 8.22389V9.99589H46.7415V11.2719H47.8367V15.1191C47.8367 16.4855 48.4704 17.0335 50.0601 17.0335C50.3635 17.0335 50.6552 17.0015 50.8832 16.9559V15.7055C50.693 15.7247 50.5727 15.7375 50.351 15.7375C49.6929 15.7375 49.4012 15.4287 49.4012 14.7327V11.2719H50.8832V9.99589H49.4012V8.22309L47.8367 8.22389ZM51.8243 17.0007H53.3888V9.95029H51.8243V17.0007ZM52.6034 8.78469C53.1223 8.78469 53.5406 8.35829 53.5406 7.82389C53.5406 7.28869 53.1231 6.85669 52.6034 6.85669C52.0908 6.85669 51.6663 7.28869 51.6663 7.82389C51.6663 8.35829 52.0908 8.78389 52.6034 8.78389V8.78469ZM57.6807 17.1431C59.7516 17.1431 61.0118 15.7639 61.0118 13.4759C61.0118 11.1943 59.7453 9.80869 57.6807 9.80869C55.6216 9.80869 54.3488 11.2007 54.3488 13.4759C54.3488 15.7639 55.6028 17.1431 57.6807 17.1431ZM57.6807 15.8023C56.5847 15.8023 55.9574 14.9519 55.9574 13.4759C55.9574 12.0063 56.5847 11.1495 57.6807 11.1495C58.7696 11.1495 59.397 12.0063 59.397 13.4759C59.397 14.9519 58.7759 15.8023 57.6807 15.8023ZM61.9466 17.0007H63.5175V12.8959C63.5175 11.8583 64.1071 11.2007 65.0435 11.2007C66.0003 11.2007 66.4429 11.7423 66.4429 12.8183V17.0007H68.0145V12.4383C68.0145 10.7559 67.1717 9.80869 65.6268 9.80869C64.5938 9.80869 63.8972 10.2919 63.5678 11.0783H63.4601V9.95029H61.9466V17.0007Z" fill="#475467"/>
</g>
<defs>
<clipPath id="clip0_212_56713">
<rect width="68.3994" height="24" fill="white" transform="translate(0.0529785)"/>
</clipPath>
</defs>
</svg>
