<svg width="69" height="24" viewBox="0 0 69 24" fill="none" xmlns="http://www.w3.org/2000/svg">
<g clip-path="url(#clip0_623_99508)">
<path d="M1.48501 1.03536L14.5359 0.054561C16.139 -0.0854391 16.551 0.00896097 17.5589 0.754562L21.725 3.74096C22.4121 4.25456 22.6409 4.39456 22.6409 4.95376V21.3322C22.6409 22.3586 22.2745 22.9658 20.9922 23.0586L5.83663 23.9922C4.87432 24.0386 4.41597 23.8986 3.91201 23.245L0.844257 19.1858C0.293916 18.4386 0.065918 17.8794 0.065918 17.2258V2.66736C0.065918 1.82816 0.432287 1.12816 1.48501 1.03536Z" fill="white"/>
<path fill-rule="evenodd" clip-rule="evenodd" d="M14.5232 0.054561L1.47231 1.03536C0.419592 1.12816 0.0532227 1.82816 0.0532227 2.66736V17.2258C0.0532227 17.8794 0.281221 18.4386 0.831561 19.1858L3.89932 23.245C4.40327 23.8986 4.86163 24.0386 5.82393 23.9922L20.9795 23.0586C22.261 22.9658 22.6282 22.3586 22.6282 21.3322V4.95376C22.6282 4.42336 22.4222 4.27056 21.816 3.81776C21.7812 3.7922 21.7463 3.7666 21.7115 3.74096L17.5462 0.754562C16.5383 0.00896097 16.1263 -0.0854391 14.5232 0.054561ZM6.16672 4.68576C4.92924 4.77056 4.64856 4.78976 3.9457 4.20816L2.15867 2.76176C1.97706 2.57456 2.06825 2.34096 2.52582 2.29456L15.072 1.36176C16.1255 1.26816 16.6743 1.64176 17.0863 1.96816L19.2381 3.55456C19.3301 3.60176 19.5589 3.88096 19.2837 3.88096L6.3271 4.67456L6.16672 4.68576ZM4.72404 21.1922V7.28817C4.72404 6.68097 4.90722 6.40097 5.45599 6.35377L20.3372 5.46737C20.8419 5.42097 21.0699 5.74737 21.0699 6.35377V20.165C21.0699 20.7722 20.9779 21.2858 20.154 21.3322L5.91356 22.1722C5.08962 22.2186 4.72404 21.9394 4.72404 21.1922ZM18.7813 8.03377C18.8725 8.45377 18.7813 8.87377 18.3685 8.92177L17.6822 9.06017V19.3258C17.0863 19.6522 16.5375 19.8386 16.0791 19.8386C15.3464 19.8386 15.1632 19.605 14.6144 18.9058L10.126 11.7202V18.6722L11.5459 18.9994C11.5459 18.9994 11.5459 19.8394 10.4004 19.8394L7.24224 20.0258C7.15025 19.8386 7.24224 19.3722 7.56222 19.2794L8.38695 19.0466V9.85457L7.24224 9.76017C7.15025 9.34017 7.37904 8.73377 8.02058 8.68657L11.4091 8.45457L16.0791 15.733V9.29377L14.8888 9.15457C14.7968 8.64017 15.1632 8.26657 15.6208 8.22097L18.7813 8.03377Z" fill="#101828"/>
<path d="M32.6415 17.0007V10.6727H32.7492L37.2337 17.0007H38.6457V7.70149H37.0756V14.0231H36.9679L32.4834 7.70149H31.0659V16.9999H32.6423L32.6415 17.0007ZM43.083 17.1431C45.1546 17.1431 46.4149 15.7639 46.4149 13.4759C46.4149 11.1943 45.1483 9.80869 43.083 9.80869C41.0247 9.80869 39.7519 11.2007 39.7519 13.4759C39.7519 15.7639 41.0059 17.1431 43.083 17.1431ZM43.083 15.8023C41.9878 15.8023 41.3612 14.9519 41.3612 13.4759C41.3612 12.0063 41.9878 11.1495 43.083 11.1495C44.1727 11.1495 44.7993 12.0063 44.7993 13.4759C44.7993 14.9519 44.179 15.8023 43.083 15.8023ZM47.8497 8.22389V9.99589H46.7545V11.2719H47.8497V15.1191C47.8497 16.4855 48.4834 17.0335 50.0731 17.0335C50.3766 17.0335 50.6683 17.0015 50.8963 16.9559V15.7055C50.706 15.7247 50.5857 15.7375 50.364 15.7375C49.7059 15.7375 49.4143 15.4287 49.4143 14.7327V11.2719H50.8963V9.99589H49.4143V8.22309L47.8497 8.22389ZM51.8373 17.0007H53.4019V9.95029H51.8373V17.0007ZM52.6165 8.78469C53.1354 8.78469 53.5536 8.35829 53.5536 7.82389C53.5536 7.28869 53.1361 6.85669 52.6165 6.85669C52.1039 6.85669 51.6793 7.28869 51.6793 7.82389C51.6793 8.35829 52.1039 8.78389 52.6165 8.78389V8.78469ZM57.6937 17.1431C59.7646 17.1431 61.0249 15.7639 61.0249 13.4759C61.0249 11.1943 59.7583 9.80869 57.6937 9.80869C55.6347 9.80869 54.3618 11.2007 54.3618 13.4759C54.3618 15.7639 55.6158 17.1431 57.6937 17.1431ZM57.6937 15.8023C56.5978 15.8023 55.9704 14.9519 55.9704 13.4759C55.9704 12.0063 56.5978 11.1495 57.6937 11.1495C58.7826 11.1495 59.41 12.0063 59.41 13.4759C59.41 14.9519 58.7889 15.8023 57.6937 15.8023ZM61.9597 17.0007H63.5305V12.8959C63.5305 11.8583 64.1202 11.2007 65.0565 11.2007C66.0133 11.2007 66.456 11.7423 66.456 12.8183V17.0007H68.0276V12.4383C68.0276 10.7559 67.1848 9.80869 65.6399 9.80869C64.6068 9.80869 63.9102 10.2919 63.5808 11.0783H63.4731V9.95029H61.9597V17.0007Z" fill="#FCFCFD"/>
</g>
<defs>
<clipPath id="clip0_623_99508">
<rect width="68.3994" height="24" fill="white" transform="translate(0.065918)"/>
</clipPath>
</defs>
</svg>
