<svg width="94" height="24" viewBox="0 0 94 24" fill="none" xmlns="http://www.w3.org/2000/svg">
<path d="M8.9658 9.39638C7.45774 9.39542 5.97514 9.78513 4.66248 10.5275V23.0842C4.66417 23.2534 4.59996 23.4167 4.48342 23.5395C4.36688 23.6622 4.20716 23.7348 4.03804 23.7419H1.16918C1.00007 23.7348 0.840346 23.6622 0.723805 23.5395C0.607265 23.4167 0.543017 23.2534 0.54471 23.0842V6.74637C0.547167 6.58152 0.613761 6.42412 0.730339 6.30754C0.846916 6.19096 1.00434 6.12439 1.16918 6.12193H3.88697C4.05181 6.12439 4.20923 6.19096 4.32581 6.30754C4.44239 6.42412 4.50898 6.58152 4.51144 6.74637V7.4041C5.79696 6.42621 7.36843 5.89834 8.98362 5.90187C9.14847 5.90433 9.30589 5.97092 9.42246 6.0875C9.53904 6.20408 9.60564 6.36148 9.60809 6.52633V8.77074C9.59946 8.93673 9.5285 9.09337 9.40943 9.20935C9.29037 9.32533 9.13196 9.39211 8.9658 9.39638Z" fill="#FCFCFD"/>
<path d="M25.4214 16.3699H15.2448V16.471C15.2448 18.2765 15.987 20.4377 18.9914 20.4377C20.9159 20.421 22.8226 20.3187 24.7304 20.1165H24.8315C25.1526 20.1165 25.3881 20.2688 25.3881 20.5923V22.6512C25.3881 23.1579 25.287 23.3767 24.7304 23.4612C22.7358 23.8553 20.7041 24.0308 18.6715 23.9845C15.5492 23.9845 11.1104 22.2967 11.1104 16.1534V13.8412C11.1104 8.96459 13.8282 5.909 18.6037 5.909C23.4137 5.909 26.0304 9.18344 26.0304 13.8412V15.5968C26.0459 16.0975 25.8579 16.3699 25.4214 16.3699ZM21.8936 13.3155C21.8936 10.8855 20.5436 9.46771 18.6192 9.46771C16.6947 9.46771 15.2769 10.8344 15.2769 13.3155V13.4344H21.8924L21.8936 13.3155Z" fill="#FCFCFD"/>
<path d="M43.3615 23.7264H40.4925C40.3234 23.7193 40.1637 23.6467 40.0471 23.524C39.9306 23.4012 39.8664 23.2379 39.8681 23.0687V12.9087C39.8681 10.1909 39.6147 9.41538 37.2181 9.41538C35.9692 9.50775 34.76 9.89544 33.6903 10.5465V23.1032C33.6917 23.2724 33.6274 23.4354 33.5109 23.5581C33.3944 23.6808 33.2349 23.7535 33.0659 23.7609H30.1969C30.0279 23.7535 29.8684 23.6808 29.7519 23.5581C29.6354 23.4354 29.5711 23.2724 29.5725 23.1032V6.76419C29.575 6.59935 29.6416 6.44193 29.7582 6.32535C29.8747 6.20877 30.0321 6.1422 30.1969 6.13974H32.9148C33.0796 6.1422 33.2371 6.20877 33.3536 6.32535C33.4702 6.44193 33.5367 6.59935 33.5392 6.76419V7.42193C35.0134 6.37303 36.7948 5.84452 38.6026 5.9197C43.0914 5.9197 44.0037 8.94081 44.0037 12.9075V23.0841C43.9954 23.2518 43.925 23.4104 43.8063 23.529C43.6876 23.6477 43.5291 23.7181 43.3615 23.7264Z" fill="#FCFCFD"/>
<path d="M61.1669 23.19C59.1141 23.7113 57.0059 23.9833 54.888 24C49.8591 24 47.428 21.0265 47.428 16.1689V13.7556C47.428 8.87897 49.8579 5.92446 54.888 5.92446C55.8929 5.93795 56.8961 6.01104 57.8924 6.14332V0.624435C57.8949 0.459588 57.9615 0.302188 58.0781 0.18561C58.1946 0.0690326 58.3521 0.00245623 58.5169 0H61.3858C61.5506 0.00245623 61.708 0.0690326 61.8246 0.18561C61.9412 0.302188 62.0077 0.459588 62.0102 0.624435V22.3574C62.0113 22.7975 61.8758 23.0009 61.1669 23.19ZM57.896 9.49866C56.8997 9.36641 55.8965 9.29333 54.8915 9.2798C52.2082 9.2798 51.5505 11.1829 51.5505 13.752V16.1487C51.5505 18.7142 52.2082 20.6209 54.8915 20.6209C55.8971 20.6242 56.9015 20.551 57.896 20.402V9.49866Z" fill="#FCFCFD"/>
<path d="M79.8335 16.3699H69.6569V16.471C69.6569 18.2765 70.3991 20.4377 73.4036 20.4377C75.3281 20.421 77.2346 20.3187 79.1425 20.1165H79.2436C79.5469 20.1165 79.8002 20.2688 79.8002 20.5923V22.6512C79.8002 23.1579 79.6991 23.3767 79.1425 23.4612C77.1478 23.8553 75.1162 24.0308 73.0836 23.9845C69.9614 23.9845 65.5225 22.2967 65.5225 16.1534V13.8412C65.5225 8.96459 68.2403 5.909 73.0158 5.909C77.8258 5.909 80.4425 9.18344 80.4425 13.8412V15.5968C80.458 16.0975 80.27 16.3699 79.8335 16.3699ZM76.3058 13.3155C76.3058 10.8855 74.9557 9.46771 73.0312 9.46771C71.1068 9.46771 69.689 10.8344 69.689 13.3155V13.4344H76.3045L76.3058 13.3155Z" fill="#FCFCFD"/>
<path d="M92.4248 9.39638C90.9167 9.39537 89.4341 9.78508 88.1215 10.5275V23.0842C88.1232 23.2534 88.0589 23.4167 87.9424 23.5395C87.8259 23.6622 87.6661 23.7348 87.497 23.7419H84.6282C84.4591 23.7345 84.2995 23.6618 84.1831 23.5391C84.0666 23.4164 84.0023 23.2533 84.0037 23.0842V6.74637C84.0061 6.58152 84.0727 6.42412 84.1893 6.30754C84.3059 6.19096 84.4633 6.12439 84.6282 6.12193H87.3448C87.5096 6.12439 87.667 6.19096 87.7836 6.30754C87.9002 6.42412 87.9667 6.58152 87.9692 6.74637V7.4041C89.2547 6.42621 90.8262 5.89834 92.4414 5.90187C92.6062 5.90433 92.7637 5.97092 92.8802 6.0875C92.9968 6.20408 93.0634 6.36148 93.0659 6.52633V8.77074C93.0598 8.93739 92.9898 9.09531 92.8704 9.21178C92.7511 9.32825 92.5915 9.39435 92.4248 9.39638Z" fill="#FCFCFD"/>
</svg>
